<svg aria-hidden="true" data-prefix="fab" data-icon="naver" class="svg-inline--fa" role="img" xmlns="http://www.w3.org/2000/svg" viewBox="0 0 512 512">
	<path fill="currentColor" d="M186.881,273.16c0,61.806,0,123.613,0,187.658c-52.049,0-102.231,0-154.881,0c0-136.116,0-270.874,0-409.116
		c51.577,0,103.335,0,157.864,0c42.159,61.37,85.415,124.339,128.673,187.306c1.461-0.327,2.922-0.654,4.383-0.981
		c0-61.316,0-122.631,0-186.845c53.596,0,104.363,0,157.08,0c0,136.853,0,271.667,0,409.202c-52.222,0-103.3,0-157.197,0
		c-42.66-62.088-86.377-125.714-130.092-189.339C190.767,271.749,188.825,272.454,186.881,273.16z"/>
</svg>
