<svg aria-hidden="true" data-prefix="fab" data-icon="buffer" class="svg-inline--fa" role="img" xmlns="http://www.w3.org/2000/svg" viewBox="0 0 512 512">
	<path fill="currentColor" d="M476.836,372.825l-50.964-23.412c-4.37-2.008-11.522-2.008-15.894,0L264.06,416.446
		c-4.37,2.008-11.524,2.008-15.894,0l-145.919-67.034c-4.372-2.008-11.524-2.008-15.894,0l-50.964,23.412
		c-4.37,2.008-4.37,5.293,0,7.301l212.776,97.747c4.37,2.008,11.524,2.008,15.894,0l212.776-97.747
		C481.206,378.117,481.206,374.833,476.836,372.825"/>
	<path fill="currentColor" d="M476.836,252.437l-50.964-23.411c-4.37-2.008-11.522-2.008-15.894,0L264.06,296.058
		c-4.37,2.008-11.524,2.008-15.894,0l-145.919-67.032c-4.372-2.008-11.524-2.008-15.894,0l-50.964,23.411
		c-4.37,2.008-4.37,5.294,0,7.302l212.776,97.745c4.37,2.008,11.524,2.008,15.894,0l212.776-97.745
		C481.206,257.731,481.206,254.444,476.836,252.437"/>
	<path fill="currentColor" d="M35.391,139.351l212.776,97.747c4.37,2.008,11.524,2.008,15.894,0l212.776-97.747
		c4.37-2.008,4.37-5.293,0-7.301L264.06,34.303c-4.37-2.008-11.524-2.008-15.894,0L35.391,132.05
		C31.021,134.058,31.021,137.343,35.391,139.351"/>
</svg>
