<svg aria-hidden="true" data-prefix="fab" data-icon="line" class="svg-inline--fa" role="img" xmlns="http://www.w3.org/2000/svg" viewBox="0 0 512 512">
	<path fill="currentColor" d="M255.999,42.503C132.531,42.503,32,124.082,32,224.339c0,89.82,79.657,165.081,187.33,179.364
		c26.232,5.631,23.21,15.245,17.305,50.541c-0.962,5.631-4.532,22.112,19.365,12.086c23.897-10.026,128.961-75.948,176.068-130.06
		C464.48,300.563,480,264.443,480,224.339C480,124.082,379.468,42.503,255.999,42.503z M176.892,277.764
		c0,2.472-1.922,4.394-4.394,4.394h-62.765c-1.236,0-2.198-0.549-3.022-1.236c-0.824-0.824-1.236-1.786-1.236-3.022v-97.646
		c0-2.472,1.922-4.394,4.394-4.394h15.656c2.472,0,4.394,1.922,4.394,4.394v77.459h42.712c2.335,0,4.258,2.06,4.258,4.394v15.656
		L176.892,277.764L176.892,277.764z M214.797,277.902c0,2.472-1.922,4.394-4.394,4.394h-15.657c-2.472,0-4.394-1.922-4.394-4.394
		v-97.648c0-2.472,1.922-4.394,4.394-4.394h15.657c2.472,0,4.394,2.06,4.394,4.394V277.902z M323.021,277.902
		c0,2.472-1.922,4.394-4.394,4.394h-15.657c-1.51,0-2.884-0.824-3.571-1.786l-44.773-60.428v57.957c0,2.472-1.922,4.394-4.394,4.394
		h-15.656c-2.472,0-4.394-1.922-4.394-4.394v-97.648c0-2.472,1.922-4.394,4.394-4.394h15.52c1.374,0,2.884,0.686,3.571,1.922
		l44.773,60.428V180.39c0-2.472,1.922-4.394,4.394-4.394h15.657c2.472-0.137,4.533,1.922,4.533,4.258v97.648L323.021,277.902
		L323.021,277.902z M409.819,195.91c0,2.472-1.922,4.394-4.394,4.394h-42.712v16.481h42.712c2.472,0,4.394,1.922,4.394,4.394v15.794
		c0,2.472-1.922,4.394-4.394,4.394h-42.712v16.481h42.712c2.472,0,4.394,1.922,4.394,4.394V277.9c0,2.472-1.922,4.394-4.394,4.394
		h-62.764c-2.472,0-4.394-2.06-4.394-4.394v-97.646c0-2.472,2.06-4.394,4.394-4.394h62.764c2.335,0,4.258,2.06,4.394,4.394V195.91z"
		/>
</svg>
